<svg xmlns="http://www.w3.org/2000/svg" xmlns:xlink="http://www.w3.org/1999/xlink" width="0" height="0" style="display:none;"><symbol viewBox="0 0 24 24" id="arrow-left-s-line"><path d="M10.8284 12.0007L15.7782 16.9504L14.364 18.3646L8 12.0007L14.364 5.63672L15.7782 7.05093L10.8284 12.0007Z"></path></symbol><symbol viewBox="0 0 24 24" id="github-fill"><path d="M12.001 2C6.47598 2 2.00098 6.475 2.00098 12C2.00098 16.425 4.86348 20.1625 8.83848 21.4875C9.33848 21.575 9.52598 21.275 9.52598 21.0125C9.52598 20.775 9.51348 19.9875 9.51348 19.15C7.00098 19.6125 6.35098 18.5375 6.15098 17.975C6.03848 17.6875 5.55098 16.8 5.12598 16.5625C4.77598 16.375 4.27598 15.9125 5.11348 15.9C5.90098 15.8875 6.46348 16.625 6.65098 16.925C7.55098 18.4375 8.98848 18.0125 9.56348 17.75C9.65098 17.1 9.91348 16.6625 10.201 16.4125C7.97598 16.1625 5.65098 15.3 5.65098 11.475C5.65098 10.3875 6.03848 9.4875 6.67598 8.7875C6.57598 8.5375 6.22598 7.5125 6.77598 6.1375C6.77598 6.1375 7.61348 5.875 9.52598 7.1625C10.326 6.9375 11.176 6.825 12.026 6.825C12.876 6.825 13.726 6.9375 14.526 7.1625C16.4385 5.8625 17.276 6.1375 17.276 6.1375C17.826 7.5125 17.476 8.5375 17.376 8.7875C18.0135 9.4875 18.401 10.375 18.401 11.475C18.401 15.3125 16.0635 16.1625 13.8385 16.4125C14.201 16.725 14.5135 17.325 14.5135 18.2625C14.5135 19.6 14.501 20.675 14.501 21.0125C14.501 21.275 14.6885 21.5875 15.1885 21.4875C19.259 20.1133 21.9999 16.2963 22.001 12C22.001 6.475 17.526 2 12.001 2Z"></path></symbol><symbol viewBox="0 0 24 24" id="instagram-line"><path d="M12.001 9C10.3436 9 9.00098 10.3431 9.00098 12C9.00098 13.6573 10.3441 15 12.001 15C13.6583 15 15.001 13.6569 15.001 12C15.001 10.3427 13.6579 9 12.001 9ZM12.001 7C14.7614 7 17.001 9.2371 17.001 12C17.001 14.7605 14.7639 17 12.001 17C9.24051 17 7.00098 14.7629 7.00098 12C7.00098 9.23953 9.23808 7 12.001 7ZM18.501 6.74915C18.501 7.43926 17.9402 7.99917 17.251 7.99917C16.5609 7.99917 16.001 7.4384 16.001 6.74915C16.001 6.0599 16.5617 5.5 17.251 5.5C17.9393 5.49913 18.501 6.0599 18.501 6.74915ZM12.001 4C9.5265 4 9.12318 4.00655 7.97227 4.0578C7.18815 4.09461 6.66253 4.20007 6.17416 4.38967C5.74016 4.55799 5.42709 4.75898 5.09352 5.09255C4.75867 5.4274 4.55804 5.73963 4.3904 6.17383C4.20036 6.66332 4.09493 7.18811 4.05878 7.97115C4.00703 9.0752 4.00098 9.46105 4.00098 12C4.00098 14.4745 4.00753 14.8778 4.05877 16.0286C4.0956 16.8124 4.2012 17.3388 4.39034 17.826C4.5591 18.2606 4.7605 18.5744 5.09246 18.9064C5.42863 19.2421 5.74179 19.4434 6.17187 19.6094C6.66619 19.8005 7.19148 19.9061 7.97212 19.9422C9.07618 19.9939 9.46203 20 12.001 20C14.4755 20 14.8788 19.9934 16.0296 19.9422C16.8117 19.9055 17.3385 19.7996 17.827 19.6106C18.2604 19.4423 18.5752 19.2402 18.9074 18.9085C19.2436 18.5718 19.4445 18.2594 19.6107 17.8283C19.8013 17.3358 19.9071 16.8098 19.9432 16.0289C19.9949 14.9248 20.001 14.5389 20.001 12C20.001 9.52552 19.9944 9.12221 19.9432 7.97137C19.9064 7.18906 19.8005 6.66149 19.6113 6.17318C19.4434 5.74038 19.2417 5.42635 18.9084 5.09255C18.573 4.75715 18.2616 4.55693 17.8271 4.38942C17.338 4.19954 16.8124 4.09396 16.0298 4.05781C14.9258 4.00605 14.5399 4 12.001 4ZM12.001 2C14.7176 2 15.0568 2.01 16.1235 2.06C17.1876 2.10917 17.9135 2.2775 18.551 2.525C19.2101 2.77917 19.7668 3.1225 20.3226 3.67833C20.8776 4.23417 21.221 4.7925 21.476 5.45C21.7226 6.08667 21.891 6.81333 21.941 7.8775C21.9885 8.94417 22.001 9.28333 22.001 12C22.001 14.7167 21.991 15.0558 21.941 16.1225C21.8918 17.1867 21.7226 17.9125 21.476 18.55C21.2218 19.2092 20.8776 19.7658 20.3226 20.3217C19.7668 20.8767 19.2076 21.22 18.551 21.475C17.9135 21.7217 17.1876 21.89 16.1235 21.94C15.0568 21.9875 14.7176 22 12.001 22C9.28431 22 8.94514 21.99 7.87848 21.94C6.81431 21.8908 6.08931 21.7217 5.45098 21.475C4.79264 21.2208 4.23514 20.8767 3.67931 20.3217C3.12348 19.7658 2.78098 19.2067 2.52598 18.55C2.27848 17.9125 2.11098 17.1867 2.06098 16.1225C2.01348 15.0558 2.00098 14.7167 2.00098 12C2.00098 9.28333 2.01098 8.94417 2.06098 7.8775C2.11014 6.8125 2.27848 6.0875 2.52598 5.45C2.78014 4.79167 3.12348 4.23417 3.67931 3.67833C4.23514 3.1225 4.79348 2.78 5.45098 2.525C6.08848 2.2775 6.81348 2.11 7.87848 2.06C8.94514 2.0125 9.28431 2 12.001 2Z"></path></symbol><symbol viewBox="0 0 24 24" id="linkedin-fill"><path d="M6.94048 4.99993C6.94011 5.81424 6.44608 6.54702 5.69134 6.85273C4.9366 7.15845 4.07187 6.97605 3.5049 6.39155C2.93793 5.80704 2.78195 4.93715 3.1105 4.19207C3.43906 3.44699 4.18654 2.9755 5.00048 2.99993C6.08155 3.03238 6.94097 3.91837 6.94048 4.99993ZM7.00048 8.47993H3.00048V20.9999H7.00048V8.47993ZM13.3205 8.47993H9.34048V20.9999H13.2805V14.4299C13.2805 10.7699 18.0505 10.4299 18.0505 14.4299V20.9999H22.0005V13.0699C22.0005 6.89993 14.9405 7.12993 13.2805 10.1599L13.3205 8.47993Z"></path></symbol><symbol viewBox="0 0 24 24" id="mail-line"><path d="M3 3H21C21.5523 3 22 3.44772 22 4V20C22 20.5523 21.5523 21 21 21H3C2.44772 21 2 20.5523 2 20V4C2 3.44772 2.44772 3 3 3ZM20 7.23792L12.0718 14.338L4 7.21594V19H20V7.23792ZM4.51146 5L12.0619 11.662L19.501 5H4.51146Z"></path></symbol><symbol viewBox="0 0 24 24" id="settings-5-line"><path d="M2.21232 14.0601C1.91928 12.6755 1.93115 11.2743 2.21316 9.94038C3.32308 10.0711 4.29187 9.7035 4.60865 8.93871C4.92544 8.17392 4.50032 7.22896 3.62307 6.53655C4.3669 5.3939 5.34931 4.39471 6.53554 3.62289C7.228 4.50059 8.17324 4.92601 8.93822 4.60914C9.7032 4.29227 10.0708 3.32308 9.93979 2.21281C11.3243 1.91977 12.7255 1.93164 14.0595 2.21364C13.9288 3.32356 14.2964 4.29235 15.0612 4.60914C15.8259 4.92593 16.7709 4.5008 17.4633 3.62356C18.606 4.36739 19.6052 5.3498 20.377 6.53602C19.4993 7.22849 19.0739 8.17373 19.3907 8.93871C19.7076 9.70369 20.6768 10.0713 21.7871 9.94028C22.0801 11.3248 22.0682 12.726 21.7862 14.06C20.6763 13.9293 19.7075 14.2969 19.3907 15.0616C19.0739 15.8264 19.4991 16.7714 20.3763 17.4638C19.6325 18.6064 18.6501 19.6056 17.4638 20.3775C16.7714 19.4998 15.8261 19.0743 15.0612 19.3912C14.2962 19.7081 13.9286 20.6773 14.0596 21.7875C12.675 22.0806 11.2738 22.0687 9.93989 21.7867C10.0706 20.6768 9.70301 19.708 8.93822 19.3912C8.17343 19.0744 7.22848 19.4995 6.53606 20.3768C5.39341 19.633 4.39422 18.6506 3.62241 17.4643C4.5001 16.7719 4.92552 15.8266 4.60865 15.0616C4.29179 14.2967 3.32259 13.9291 2.21232 14.0601ZM3.99975 12.2104C5.09956 12.5148 6.00718 13.2117 6.45641 14.2963C6.90564 15.3808 6.75667 16.5154 6.19421 17.5083C6.29077 17.61 6.38998 17.7092 6.49173 17.8056C7.4846 17.2432 8.61912 17.0943 9.70359 17.5435C10.7881 17.9927 11.485 18.9002 11.7894 19.9999C11.9295 20.0037 12.0697 20.0038 12.2099 20.0001C12.5143 18.9003 13.2112 17.9927 14.2958 17.5435C15.3803 17.0942 16.5149 17.2432 17.5078 17.8057C17.6096 17.7091 17.7087 17.6099 17.8051 17.5081C17.2427 16.5153 17.0938 15.3807 17.543 14.2963C17.9922 13.2118 18.8997 12.5149 19.9994 12.2105C20.0032 12.0704 20.0033 11.9301 19.9996 11.7899C18.8998 11.4856 17.9922 10.7886 17.543 9.70407C17.0937 8.61953 17.2427 7.48494 17.8052 6.49204C17.7086 6.39031 17.6094 6.2912 17.5076 6.19479C16.5148 6.75717 15.3803 6.9061 14.2958 6.4569C13.2113 6.0077 12.5144 5.10016 12.21 4.00044C12.0699 3.99666 11.9297 3.99659 11.7894 4.00024C11.4851 5.10005 10.7881 6.00767 9.70359 6.4569C8.61904 6.90613 7.48446 6.75715 6.49155 6.1947C6.38982 6.29126 6.29071 6.39047 6.19431 6.49222C6.75668 7.48509 6.90561 8.61961 6.45641 9.70407C6.00721 10.7885 5.09967 11.4855 3.99995 11.7899C3.99617 11.93 3.9961 12.0702 3.99975 12.2104ZM11.9997 15.0002C10.3428 15.0002 8.99969 13.657 8.99969 12.0002C8.99969 10.3433 10.3428 9.00018 11.9997 9.00018C13.6565 9.00018 14.9997 10.3433 14.9997 12.0002C14.9997 13.657 13.6565 15.0002 11.9997 15.0002ZM11.9997 13.0002C12.552 13.0002 12.9997 12.5525 12.9997 12.0002C12.9997 11.4479 12.552 11.0002 11.9997 11.0002C11.4474 11.0002 10.9997 11.4479 10.9997 12.0002C10.9997 12.5525 11.4474 13.0002 11.9997 13.0002Z"></path></symbol><symbol viewBox="0 0 24 24" id="shut-down-line"><path d="M6.26489 3.80698L7.41191 5.44558C5.34875 6.89247 4 9.28873 4 12C4 16.4183 7.58172 20 12 20C16.4183 20 20 16.4183 20 12C20 9.28873 18.6512 6.89247 16.5881 5.44558L17.7351 3.80698C20.3141 5.61559 22 8.61091 22 12C22 17.5228 17.5228 22 12 22C6.47715 22 2 17.5228 2 12C2 8.61091 3.68594 5.61559 6.26489 3.80698ZM11 12V2H13V12H11Z"></path></symbol><symbol viewBox="0 0 24 24" id="user-line"><path d="M4 22C4 17.5817 7.58172 14 12 14C16.4183 14 20 17.5817 20 22H18C18 18.6863 15.3137 16 12 16C8.68629 16 6 18.6863 6 22H4ZM12 13C8.685 13 6 10.315 6 7C6 3.685 8.685 1 12 1C15.315 1 18 3.685 18 7C18 10.315 15.315 13 12 13ZM12 11C14.21 11 16 9.21 16 7C16 4.79 14.21 3 12 3C9.79 3 8 4.79 8 7C8 9.21 9.79 11 12 11Z"></path></symbol></svg>